<svg width="631" height="420" viewBox="0 0 631 420" fill="none" xmlns="http://www.w3.org/2000/svg">
<path opacity="0.62" d="M61.4621 356.877C35.7561 344.399 12.51 324.33 3.84105 298.212C-3.35095 276.541 0.21705 252.867 9.07605 232.09C29.0061 185.343 72.028 157.214 117.285 147.606C140.396 142.7 163.498 146.815 186.282 142.362C215.591 136.633 243.16 122.803 268.88 106.456C306.224 82.7201 341.252 54.2901 383.875 40.3941C447.957 19.5021 524.61 36.8021 573.732 82.7911C622.854 128.78 642.325 201.113 622.678 262.839C603.031 324.565 545.385 373.047 478.564 384.65C422.19 394.439 364.128 379.68 306.62 376.929C223.886 372.969 135.817 392.969 61.4621 356.877Z" fill="#AEDCFE"/>
<path opacity="0.62" d="M155.529 71.6888C161.879 44.7963 145.226 17.8479 118.333 11.4979C91.4408 5.1478 64.4924 21.8007 58.1423 48.6931C51.7923 75.5856 68.4452 102.534 95.3376 108.884C122.23 115.234 149.178 98.5812 155.529 71.6888Z" fill="#AEDCFE"/>
<path opacity="0.62" d="M602.548 77.8201C612.289 76.6156 619.21 67.742 618.006 58.0003C616.801 48.2586 607.927 41.3378 598.186 42.5423C588.444 43.7467 581.523 52.6204 582.728 62.3621C583.932 72.1038 592.806 79.0246 602.548 77.8201Z" fill="#AEDCFE"/>
<path d="M550.172 168.562H428.735C425.658 168.562 423.164 166.068 423.164 162.991V88.1232C423.164 85.0462 425.658 82.5522 428.735 82.5522H550.173C553.25 82.5522 555.744 85.0462 555.744 88.1232V162.991C555.744 166.068 553.249 168.562 550.172 168.562Z" fill="#374C7F"/>
<path d="M547.232 173.138H422.168C419.26 173.138 416.902 170.781 416.902 167.872V90.4374C416.902 87.5294 419.259 85.1714 422.168 85.1714H547.232C550.14 85.1714 552.498 87.5284 552.498 90.4374V167.872C552.497 170.78 550.14 173.138 547.232 173.138Z" fill="#BCC0CE"/>
<path d="M546.37 170.751H422.864C420.97 170.751 419.434 169.215 419.434 167.321V96.0586C419.434 94.5746 420.637 93.3716 422.121 93.3716H547.113C548.597 93.3716 549.8 94.5746 549.8 96.0586V167.321C549.8 169.215 548.264 170.751 546.37 170.751Z" fill="white"/>
<path d="M541.574 108.434H428.275C424.742 108.434 421.879 105.57 421.879 102.038V101.909C421.879 98.3762 424.743 95.5132 428.275 95.5132H541.574C545.106 95.5132 547.97 98.3772 547.97 101.909V102.038C547.97 105.57 545.107 108.434 541.574 108.434Z" fill="#374C7F"/>
<path d="M523.739 104.172H448.452C447.767 104.172 447.211 103.617 447.211 102.931V100.495C447.211 99.8104 447.767 99.2544 448.452 99.2544H523.739C524.424 99.2544 524.98 99.8094 524.98 100.495V102.931C524.98 103.616 524.424 104.172 523.739 104.172Z" fill="white"/>
<path d="M427.539 104.172H450.063C450.697 104.172 451.211 103.658 451.211 103.024V100.402C451.211 99.7684 450.697 99.2544 450.063 99.2544H427.539C426.905 99.2544 426.391 99.7684 426.391 100.402V103.024C426.391 103.658 426.905 104.172 427.539 104.172Z" fill="#DEF6F8"/>
<path d="M453.957 101.713H479.509" stroke="#57595E" stroke-width="0.5975" stroke-miterlimit="10"/>
<path d="M429.758 101.713H447.21" stroke="#57595E" stroke-width="0.5975" stroke-miterlimit="10"/>
<path d="M523.74 99.2554H516.094V104.172H523.74C524.425 104.172 524.981 103.616 524.981 102.931V100.495C524.981 99.8104 524.426 99.2554 523.74 99.2554Z" fill="#27DEBF"/>
<path d="M520.831 101.235C520.831 101.95 520.252 102.529 519.537 102.529C518.822 102.529 518.242 101.949 518.242 101.235C518.242 100.52 518.822 99.9404 519.537 99.9404C520.251 99.9414 520.831 100.52 520.831 101.235Z" stroke="white" stroke-width="0.3983" stroke-miterlimit="10"/>
<path d="M520.535 102.059L521.914 103.438" stroke="white" stroke-width="0.3983" stroke-miterlimit="10"/>
<path d="M531.141 98.3096H534.043L535.436 102.413H541.38L542.021 99.1746" stroke="white" stroke-width="0.8901" stroke-miterlimit="10" stroke-linecap="round"/>
<path d="M538.285 100.646C538.971 100.646 539.527 100.02 539.527 99.2486C539.527 98.477 538.971 97.8516 538.285 97.8516C537.599 97.8516 537.043 98.477 537.043 99.2486C537.043 100.02 537.599 100.646 538.285 100.646Z" fill="#27DEBF"/>
<path d="M537.19 104.711C537.19 105.303 536.71 105.783 536.118 105.783C535.526 105.783 535.047 105.303 535.047 104.711C535.047 104.119 535.527 103.639 536.118 103.639C536.71 103.64 537.19 104.12 537.19 104.711Z" fill="white"/>
<path d="M541.185 104.711C541.185 105.303 540.705 105.783 540.114 105.783C539.522 105.783 539.043 105.303 539.043 104.711C539.043 104.119 539.523 103.639 540.114 103.639C540.705 103.64 541.185 104.12 541.185 104.711Z" fill="white"/>
<path d="M529.652 166.65H488.805C487.981 166.65 487.312 165.982 487.312 165.158V161.512C487.312 160.688 487.981 160.02 488.805 160.02H529.652C530.476 160.02 531.144 160.688 531.144 161.512V165.158C531.144 165.982 530.476 166.65 529.652 166.65Z" fill="#374C7F"/>
<path d="M529.652 165.859H488.805C487.981 165.859 487.312 165.191 487.312 164.367V160.721C487.312 159.897 487.981 159.229 488.805 159.229H529.652C530.476 159.229 531.144 159.897 531.144 160.721V164.367C531.144 165.191 530.476 165.859 529.652 165.859Z" fill="#FF4747"/>
<path d="M510.154 135.804L511.004 137.525L512.903 137.801L511.528 139.141L511.853 141.032L510.154 140.139L508.455 141.032L508.78 139.141L507.406 137.801L509.305 137.525L510.154 135.804Z" fill="#27DEBF"/>
<path d="M516.179 135.804L517.028 137.525L518.927 137.801L517.553 139.141L517.877 141.032L516.179 140.139L514.48 141.032L514.804 139.141L513.43 137.801L515.329 137.525L516.179 135.804Z" fill="#27DEBF"/>
<path d="M522.206 135.804L523.055 137.525L524.955 137.801L523.58 139.141L523.905 141.032L522.206 140.139L520.507 141.032L520.832 139.141L519.457 137.801L521.357 137.525L522.206 135.804Z" fill="#27DEBF"/>
<path d="M528.228 135.804L529.078 137.525L530.977 137.801L529.603 139.141L529.927 141.032L528.228 140.139L526.53 141.032L526.854 139.141L525.48 137.801L527.379 137.525L528.228 135.804Z" fill="#27DEBF"/>
<path d="M534.257 135.804L535.106 137.525L537.005 137.801L535.631 139.141L535.955 141.032L534.257 140.139L532.558 141.032L532.882 139.141L531.508 137.801L533.407 137.525L534.257 135.804Z" fill="#27DEBF"/>
<path d="M535.71 155.385H484.989C483.966 155.385 483.137 154.556 483.137 153.533V149.006C483.137 147.983 483.966 147.154 484.989 147.154H535.71C536.733 147.154 537.562 147.983 537.562 149.006V153.533C537.562 154.556 536.733 155.385 535.71 155.385Z" fill="#27DEBF"/>
<path d="M522.69 148.706H521.719V153.833H522.69V148.706Z" fill="#374C7F"/>
<path d="M524.768 150.784H519.641V151.755H524.768V150.784Z" fill="#374C7F"/>
<path d="M520.745 149.148L520.059 149.835L523.683 153.461L524.37 152.774L520.745 149.148Z" fill="#374C7F"/>
<path d="M523.703 149.091L520.078 152.717L520.765 153.404L524.39 149.778L523.703 149.091Z" fill="#374C7F"/>
<path d="M514.498 148.706H513.527V153.833H514.498V148.706Z" fill="#374C7F"/>
<path d="M516.576 150.784H511.449V151.755H516.576V150.784Z" fill="#374C7F"/>
<path d="M512.577 149.095L511.891 149.782L515.516 153.408L516.203 152.721L512.577 149.095Z" fill="#374C7F"/>
<path d="M515.477 149.116L511.852 152.742L512.538 153.428L516.163 149.803L515.477 149.116Z" fill="#374C7F"/>
<path d="M506.303 148.706H505.332V153.833H506.303V148.706Z" fill="#374C7F"/>
<path d="M508.381 150.784H503.254V151.755H508.381V150.784Z" fill="#374C7F"/>
<path d="M504.343 149.116L503.656 149.803L507.282 153.428L507.968 152.741L504.343 149.116Z" fill="#374C7F"/>
<path d="M507.321 149.097L503.695 152.723L504.382 153.41L508.007 149.784L507.321 149.097Z" fill="#374C7F"/>
<path d="M498.112 148.706H497.141V153.833H498.112V148.706Z" fill="#374C7F"/>
<path d="M500.19 150.784H495.062V151.755H500.19V150.784Z" fill="#374C7F"/>
<path d="M496.167 149.147L495.48 149.834L499.105 153.46L499.792 152.773L496.167 149.147Z" fill="#374C7F"/>
<path d="M499.125 149.093L495.5 152.719L496.187 153.405L499.812 149.78L499.125 149.093Z" fill="#374C7F"/>
<path d="M425.441 89.5173C425.441 90.5013 424.643 91.2993 423.66 91.2993C422.676 91.2993 421.879 90.5013 421.879 89.5173C421.879 88.5333 422.677 87.7363 423.66 87.7363C424.643 87.7353 425.441 88.5333 425.441 89.5173Z" fill="#374C7F"/>
<path d="M432.601 89.5173C432.601 90.5013 431.803 91.2993 430.82 91.2993C429.836 91.2993 429.039 90.5013 429.039 89.5173C429.039 88.5333 429.837 87.7363 430.82 87.7363C431.803 87.7353 432.601 88.5333 432.601 89.5173Z" fill="#FF4747"/>
<path d="M439.757 89.5173C439.757 90.5013 438.959 91.2993 437.976 91.2993C436.993 91.2993 436.195 90.5013 436.195 89.5173C436.195 88.5333 436.993 87.7363 437.976 87.7363C438.959 87.7363 439.757 88.5333 439.757 89.5173Z" fill="white"/>
<path d="M483.133 115.564H537.559" stroke="#45619B" stroke-width="1.2141" stroke-miterlimit="10" stroke-linecap="round"/>
<path d="M483.133 123.446H537.559" stroke="#45619B" stroke-width="1.2141" stroke-miterlimit="10" stroke-linecap="round"/>
<path d="M483.133 131.329H537.559" stroke="#45619B" stroke-width="1.2141" stroke-miterlimit="10" stroke-linecap="round"/>
<path d="M483.133 139.21H503.66" stroke="#45619B" stroke-width="1.2141" stroke-miterlimit="10" stroke-linecap="round"/>
<path d="M458.282 151.695L449.373 150.477L440.463 151.695L430.593 142.647C427.912 140.189 426.375 136.694 426.375 133.058V126.19C426.375 118.732 432.443 112.664 439.901 112.664H458.845C466.303 112.664 472.371 118.732 472.371 126.19V133.058C472.371 136.695 470.834 140.19 468.153 142.647L458.282 151.695ZM439.901 119.151C436.02 119.151 432.862 122.309 432.862 126.19V133.058C432.862 134.881 433.633 136.633 434.977 137.865L442.602 144.855L449.373 143.929L456.144 144.855L463.769 137.865C465.113 136.633 465.884 134.881 465.884 133.058V126.19C465.884 122.309 462.726 119.151 458.845 119.151H439.901Z" fill="#374C7F"/>
<path d="M463.627 121.033C465.013 122.319 465.882 124.155 465.882 126.191V133.059C465.882 134.882 465.111 136.634 463.767 137.866L458.613 142.591L461.19 144.385L465.181 140.782C467.318 138.853 468.537 136.109 468.537 133.231V129.141C468.537 123.309 463.627 121.033 463.627 121.033Z" fill="#28355F"/>
<path d="M449.371 134.854C440.325 134.854 432.992 142.187 432.992 151.233C432.992 156.058 435.079 160.397 438.4 163.395C441.745 164.913 445.459 165.758 449.371 165.758C453.283 165.758 456.998 164.913 460.342 163.395C463.662 160.398 465.749 156.059 465.749 151.233C465.749 142.187 458.416 134.854 449.371 134.854Z" fill="#374C7F"/>
<path d="M465.437 154.436C455.977 157.817 447.677 157.62 442.32 156.836C437.867 156.184 434.674 155.035 433.316 154.482C433.446 155.129 433.614 155.763 433.818 156.38C435.539 157.003 438.371 157.75 442.022 158.399C444.08 158.765 446.501 159.038 448.998 158.905C453.56 158.663 459.027 158.268 464.956 156.285C465.151 155.683 465.313 155.066 465.437 154.436Z" fill="#DEF6F8"/>
<path opacity="0.31" d="M457.226 136.856C454.895 135.58 452.219 134.854 449.374 134.854C444.128 134.854 439.458 137.322 436.461 141.158C438.056 144.111 443.21 145.247 448.594 143.674C453.008 142.386 456.313 139.646 457.226 136.856Z" fill="#9BABB8"/>
<path opacity="0.4" d="M450.094 165.749C453.742 165.652 457.206 164.82 460.345 163.395C463.665 160.398 465.752 156.06 465.752 151.234C465.752 151.049 465.748 150.866 465.742 150.683C461.544 151.677 452.047 155.082 450.094 165.749Z" fill="#19181B"/>
<path d="M259.296 157.104H103.869C99.9313 157.104 96.7383 153.911 96.7383 149.973V54.15C96.7383 50.212 99.9313 47.019 103.869 47.019H259.296C263.234 47.019 266.427 50.211 266.427 54.15V149.973C266.427 153.911 263.235 157.104 259.296 157.104Z" fill="#374C7F"/>
<path d="M265.633 152.015H107.198C103.514 152.015 100.527 149.029 100.527 145.344V47.2472C100.527 43.5632 103.513 40.5762 107.198 40.5762H265.632C269.316 40.5762 272.302 43.5632 272.302 47.2472V145.344C272.303 149.028 269.317 152.015 265.633 152.015Z" fill="#BCC0CE"/>
<path d="M264.544 148.99H108.083C105.683 148.99 103.738 147.045 103.738 144.645V54.3684C103.738 52.4884 105.262 50.9644 107.142 50.9644H265.486C267.366 50.9644 268.89 52.4884 268.89 54.3684V144.645C268.889 147.044 266.944 148.99 264.544 148.99Z" fill="white"/>
<path d="M258.465 70.0463H114.935C110.46 70.0463 106.832 66.4183 106.832 61.9433V61.7793C106.832 57.3043 110.46 53.6763 114.935 53.6763H258.466C262.941 53.6763 266.569 57.3043 266.569 61.7793V61.9433C266.568 66.4183 262.941 70.0463 258.465 70.0463Z" fill="#374C7F"/>
<path d="M235.869 64.647H140.494C139.626 64.647 138.922 63.943 138.922 63.075V59.99C138.922 59.122 139.626 58.418 140.494 58.418H235.869C236.737 58.418 237.441 59.122 237.441 59.99V63.075C237.441 63.943 236.738 64.647 235.869 64.647Z" fill="white"/>
<path d="M114.001 64.647H142.536C143.339 64.647 143.99 63.996 143.99 63.193V59.872C143.99 59.069 143.339 58.418 142.536 58.418H114.001C113.198 58.418 112.547 59.069 112.547 59.872V63.193C112.547 63.996 113.198 64.647 114.001 64.647Z" fill="#DEF6F8"/>
<path d="M147.469 61.5322H179.839" stroke="#57595E" stroke-width="0.7569" stroke-miterlimit="10"/>
<path d="M116.816 61.5322H138.924" stroke="#57595E" stroke-width="0.7569" stroke-miterlimit="10"/>
<path d="M235.87 58.418H226.184V64.647H235.87C236.738 64.647 237.442 63.943 237.442 63.075V59.99C237.442 59.121 236.739 58.418 235.87 58.418Z" fill="#27DEBF"/>
<path d="M230.546 62.5671C231.452 62.5671 232.186 61.8329 232.186 60.9271C232.186 60.0214 231.452 59.2871 230.546 59.2871C229.641 59.2871 228.906 60.0214 228.906 60.9271C228.906 61.8329 229.641 62.5671 230.546 62.5671Z" stroke="white" stroke-width="0.5046" stroke-miterlimit="10"/>
<path d="M231.812 61.9692L233.56 63.7162" stroke="white" stroke-width="0.5046" stroke-miterlimit="10"/>
<path d="M245.25 57.2192H248.927L250.691 62.4172H258.222L259.034 58.3152" stroke="white" stroke-width="1.1276" stroke-miterlimit="10" stroke-linecap="round"/>
<path d="M254.3 60.1782C255.168 60.1782 255.873 59.3857 255.873 58.4082C255.873 57.4306 255.168 56.6382 254.3 56.6382C253.431 56.6382 252.727 57.4306 252.727 58.4082C252.727 59.3857 253.431 60.1782 254.3 60.1782Z" fill="#27DEBF"/>
<path d="M252.909 65.3301C252.909 66.0801 252.301 66.6871 251.552 66.6871C250.802 66.6871 250.195 66.0791 250.195 65.3301C250.195 64.5801 250.803 63.9731 251.552 63.9731C252.302 63.9731 252.909 64.5801 252.909 65.3301Z" fill="white"/>
<path d="M257.972 65.3301C257.972 66.0801 257.364 66.6871 256.615 66.6871C255.865 66.6871 255.258 66.0791 255.258 65.3301C255.258 64.5801 255.866 63.9731 256.615 63.9731C257.364 63.9731 257.972 64.5801 257.972 65.3301Z" fill="white"/>
<path d="M243.362 143.794H191.617C190.573 143.794 189.727 142.948 189.727 141.904V137.285C189.727 136.241 190.573 135.395 191.617 135.395H243.362C244.406 135.395 245.252 136.241 245.252 137.285V141.904C245.251 142.948 244.405 143.794 243.362 143.794Z" fill="#374C7F"/>
<path d="M243.362 142.793H191.617C190.573 142.793 189.727 141.947 189.727 140.903V136.284C189.727 135.24 190.573 134.394 191.617 134.394H243.362C244.406 134.394 245.252 135.24 245.252 136.284V140.903C245.251 141.947 244.405 142.793 243.362 142.793Z" fill="#5277F7"/>
<path d="M218.662 104.72L219.738 106.9L222.144 107.249L220.403 108.946L220.814 111.343L218.662 110.211L216.51 111.343L216.921 108.946L215.18 107.249L217.586 106.9L218.662 104.72Z" fill="#27DEBF"/>
<path d="M226.294 104.72L227.371 106.9L229.777 107.249L228.036 108.946L228.447 111.343L226.294 110.211L224.143 111.343L224.553 108.946L222.812 107.249L225.219 106.9L226.294 104.72Z" fill="#27DEBF"/>
<path d="M233.927 104.72L235.003 106.9L237.409 107.249L235.668 108.946L236.079 111.343L233.927 110.211L231.775 111.343L232.186 108.946L230.445 107.249L232.851 106.9L233.927 104.72Z" fill="#27DEBF"/>
<path d="M241.56 104.72L242.636 106.9L245.042 107.249L243.301 108.946L243.712 111.343L241.56 110.211L239.408 111.343L239.819 108.946L238.078 107.249L240.484 106.9L241.56 104.72Z" fill="#27DEBF"/>
<path d="M249.193 104.72L250.269 106.9L252.675 107.249L250.934 108.946L251.345 111.343L249.193 110.211L247.041 111.343L247.452 108.946L245.711 107.249L248.117 106.9L249.193 104.72Z" fill="#27DEBF"/>
<path d="M251.036 129.525H186.781C185.485 129.525 184.434 128.474 184.434 127.178V121.442C184.434 120.146 185.485 119.095 186.781 119.095H251.036C252.332 119.095 253.383 120.146 253.383 121.442V127.178C253.382 128.475 252.332 129.525 251.036 129.525Z" fill="#27DEBF"/>
<path d="M234.547 121.064H233.316V127.559H234.547V121.064Z" fill="#374C7F"/>
<path d="M237.179 123.696H230.684V124.927H237.179V123.696Z" fill="#374C7F"/>
<path d="M232.066 121.582L231.195 122.452L235.788 127.045L236.658 126.174L232.066 121.582Z" fill="#374C7F"/>
<path d="M235.788 121.581L231.195 126.173L232.066 127.044L236.658 122.451L235.788 121.581Z" fill="#374C7F"/>
<path d="M224.164 121.064H222.934V127.559H224.164V121.064Z" fill="#374C7F"/>
<path d="M226.796 123.696H220.301V124.927H226.796V123.696Z" fill="#374C7F"/>
<path d="M221.691 121.599L220.82 122.47L225.413 127.062L226.283 126.192L221.691 121.599Z" fill="#374C7F"/>
<path d="M225.401 121.563L220.809 126.156L221.679 127.026L226.272 122.434L225.401 121.563Z" fill="#374C7F"/>
<path d="M213.786 121.064H212.555V127.559H213.786V121.064Z" fill="#374C7F"/>
<path d="M216.417 123.696H209.922V124.927H216.417V123.696Z" fill="#374C7F"/>
<path d="M211.304 121.581L210.434 122.452L215.026 127.044L215.897 126.174L211.304 121.581Z" fill="#374C7F"/>
<path d="M215.026 121.581L210.434 126.174L211.304 127.044L215.897 122.452L215.026 121.581Z" fill="#374C7F"/>
<path d="M203.406 121.064H202.176V127.559H203.406V121.064Z" fill="#374C7F"/>
<path d="M206.038 123.696H199.543V124.927H206.038V123.696Z" fill="#374C7F"/>
<path d="M200.933 121.598L200.062 122.468L204.655 127.061L205.526 126.19L200.933 121.598Z" fill="#374C7F"/>
<path d="M204.643 121.563L200.051 126.155L200.921 127.026L205.514 122.433L204.643 121.563Z" fill="#374C7F"/>
<path d="M160.847 136.162C166.431 129.358 166.851 120.471 161.785 116.312C156.718 112.153 148.083 114.297 142.499 121.101C136.914 127.905 136.494 136.792 141.561 140.951C146.627 145.109 155.262 142.965 160.847 136.162Z" fill="#374C7F"/>
<path d="M144.764 122.977C139.18 129.781 138.249 138.248 142.685 141.889C147.121 145.53 155.245 142.967 160.829 136.163C166.413 129.36 167.344 120.892 162.908 117.251C158.471 113.61 150.348 116.173 144.764 122.977Z" fill="#28355F"/>
<path d="M162.217 137.285C167.802 130.481 168.733 122.014 164.296 118.372C159.86 114.731 151.736 117.294 146.151 124.098C140.566 130.901 139.636 139.369 144.072 143.011C148.509 146.652 156.632 144.089 162.217 137.285Z" fill="#374C7F"/>
<path d="M149.67 127.003C145.315 132.309 144.746 139.042 148.4 142.041C152.054 145.04 158.546 143.17 162.902 137.864C167.258 132.558 167.826 125.825 164.172 122.826C160.517 119.827 154.025 121.697 149.67 127.003Z" fill="#9BABB8"/>
<path d="M151.657 128.634C147.302 133.94 146.288 140.308 149.393 142.856C152.498 145.405 158.546 143.169 162.901 137.863C167.256 132.557 168.27 126.19 165.165 123.641C162.06 121.093 156.012 123.328 151.657 128.634Z" fill="#DEF6F8"/>
<path d="M155.295 121.312L162.423 119.431C162.423 119.431 171.128 95.2192 155.213 79.7212C146.692 71.4382 141.305 74.3362 139.798 74.9522C138.291 75.5672 135.43 76.9242 135.43 76.9242C135.43 76.9242 140.885 75.9062 146.488 81.4362C152.108 86.9922 158.443 97.0682 156.667 111.269C155.312 119.894 155.295 121.312 155.295 121.312Z" fill="#28355F"/>
<path d="M156.164 98.9032C154.454 91.0772 150.308 85.2112 146.488 81.4362C140.886 75.9062 135.43 76.9242 135.43 76.9242C135.43 76.9242 138.291 75.5672 139.798 74.9522C141.305 74.3362 146.692 71.4382 155.213 79.7212C160.43 84.8012 163.001 90.8172 164.101 96.6102L156.164 98.9032Z" fill="#374C7F"/>
<path d="M155.296 121.312C155.691 121.273 156.455 117.814 156.54 117.492C157.384 114.314 157.869 111.033 157.964 107.746C158.09 103.353 157.493 98.9334 156.047 94.7764C154.259 89.6374 151.185 85.0454 147.269 81.2834C144.956 79.0614 142.464 76.7844 139.13 76.4834C136.663 76.2604 134.227 77.1134 132.265 78.5864C130.304 80.0584 128.819 82.1014 127.832 84.3324C127.26 85.6264 126.851 86.9914 126.593 88.3824C126.52 88.7724 126.092 92.9734 126.256 92.9634C133.609 92.5244 133.609 92.5244 133.609 92.5244C133.609 92.5244 134.261 80.7334 138.865 77.4494C142.518 78.3484 163.339 90.1154 154.257 121.415C155.288 121.312 155.296 121.312 155.296 121.312Z" fill="#44555F"/>
<path d="M138.867 77.4473C134.262 80.7313 133.611 92.5222 133.611 92.5222C133.611 92.5222 133.611 92.5223 126.258 92.9613C126.248 92.9623 126.24 92.9453 126.234 92.9133C126.54 92.7813 126.866 92.6413 127.217 92.4913C128.342 77.0483 138.867 77.4473 138.867 77.4473Z" fill="#28355F"/>
<path d="M118.112 98.4272C112.528 105.23 111.86 113.914 116.621 117.822C121.382 121.73 129.769 119.383 135.353 112.58C140.937 105.777 141.605 97.0932 136.844 93.1852C132.083 89.2762 123.696 91.6232 118.112 98.4272Z" fill="#374C7F"/>
<path d="M136.812 113.761C142.396 106.957 143.064 98.2735 138.302 94.3652C133.541 90.4569 125.154 92.8042 119.569 99.6079C113.984 106.412 113.317 115.096 118.078 119.004C122.84 122.912 131.227 120.565 136.812 113.761Z" fill="#28355F"/>
<path d="M121.78 101.438C116.196 108.241 115.265 116.709 119.701 120.35C124.137 123.991 132.261 121.428 137.845 114.625C143.429 107.821 144.36 99.3543 139.924 95.7133C135.488 92.0713 127.365 94.6343 121.78 101.438Z" fill="#374C7F"/>
<path d="M125.888 104.808C122.597 108.817 122.049 113.807 124.663 115.953C127.277 118.099 132.064 116.588 135.355 112.579C138.646 108.57 139.194 103.58 136.58 101.434C133.966 99.2891 129.178 100.799 125.888 104.808Z" fill="#28355F"/>
<path d="M134.546 111.917C137.666 108.116 138.319 103.437 136.152 101.132C136.299 101.224 136.443 101.323 136.579 101.435C139.193 103.581 138.645 108.571 135.354 112.58C132.063 116.589 127.276 118.1 124.662 115.954C124.526 115.842 124.4 115.721 124.281 115.595C126.964 117.27 131.427 115.717 134.546 111.917Z" fill="#9BABB8"/>
<path d="M154.786 130.988C152.388 133.91 151.712 137.32 153.277 138.605C154.842 139.89 158.055 138.562 160.453 135.64C162.851 132.718 163.527 129.308 161.962 128.023C160.398 126.739 157.185 128.066 154.786 130.988Z" fill="#819EC7"/>
<path d="M109.089 48.3382C110.336 48.3382 111.346 47.3277 111.346 46.0812C111.346 44.8347 110.336 43.8242 109.089 43.8242C107.843 43.8242 106.832 44.8347 106.832 46.0812C106.832 47.3277 107.843 48.3382 109.089 48.3382Z" fill="#374C7F"/>
<path d="M118.155 48.3382C119.402 48.3382 120.412 47.3277 120.412 46.0812C120.412 44.8347 119.402 43.8242 118.155 43.8242C116.909 43.8242 115.898 44.8347 115.898 46.0812C115.898 47.3277 116.909 48.3382 118.155 48.3382Z" fill="#FF4747"/>
<path d="M127.226 48.3382C128.472 48.3382 129.483 47.3277 129.483 46.0812C129.483 44.8347 128.472 43.8242 127.226 43.8242C125.979 43.8242 124.969 44.8347 124.969 46.0812C124.969 47.3277 125.979 48.3382 127.226 48.3382Z" fill="white"/>
<path d="M184.434 79.0781H253.382" stroke="#45619B" stroke-width="1.5381" stroke-miterlimit="10" stroke-linecap="round"/>
<path d="M184.434 89.064H253.382" stroke="#45619B" stroke-width="1.5381" stroke-miterlimit="10" stroke-linecap="round"/>
<path d="M184.434 99.0493H253.382" stroke="#45619B" stroke-width="1.5381" stroke-miterlimit="10" stroke-linecap="round"/>
<path d="M184.434 109.034H210.439" stroke="#45619B" stroke-width="1.5381" stroke-miterlimit="10" stroke-linecap="round"/>
<path d="M241.948 396.313H29.6765C24.2975 396.313 19.9375 391.953 19.9375 386.574V255.706C19.9375 250.327 24.2975 245.967 29.6765 245.967H241.948C247.327 245.967 251.688 250.327 251.688 255.706V386.574C251.688 391.953 247.327 396.313 241.948 396.313Z" fill="#374C7F"/>
<path d="M247.441 390.608H33.6904C28.7204 390.608 24.6914 386.579 24.6914 381.609V249.261C24.6914 244.291 28.7204 240.262 33.6904 240.262H247.441C252.411 240.262 256.44 244.291 256.44 249.261V381.608C256.441 386.579 252.412 390.608 247.441 390.608Z" fill="#BCC0CE"/>
<path d="M245.971 386.527H34.8815C31.6435 386.527 29.0195 383.902 29.0195 380.665V258.868C29.0195 256.332 31.0755 254.275 33.6125 254.275H247.241C249.777 254.275 251.834 256.331 251.834 258.868V380.664C251.834 383.902 249.209 386.527 245.971 386.527Z" fill="white"/>
<path d="M237.771 280.02H44.1273C38.0893 280.02 33.1953 275.125 33.1953 269.088V268.867C33.1953 262.829 38.0893 257.935 44.1273 257.935H237.771C243.809 257.935 248.703 262.829 248.703 268.867V269.088C248.702 275.126 243.808 280.02 237.771 280.02Z" fill="#374C7F"/>
<path d="M207.288 272.736H78.6132C77.4422 272.736 76.4922 271.787 76.4922 270.615V266.452C76.4922 265.281 77.4412 264.331 78.6132 264.331H207.288C208.459 264.331 209.409 265.28 209.409 266.452V270.615C209.409 271.786 208.459 272.736 207.288 272.736Z" fill="white"/>
<path d="M42.8682 272.736H81.3652C82.4482 272.736 83.3272 271.858 83.3272 270.774V266.293C83.3272 265.21 82.4492 264.331 81.3652 264.331H42.8682C41.7852 264.331 40.9062 265.209 40.9062 266.293V270.774C40.9073 271.857 41.7852 272.736 42.8682 272.736Z" fill="#DEF6F8"/>
<path d="M88.0195 268.534H131.692" stroke="#57595E" stroke-width="1.0212" stroke-miterlimit="10"/>
<path d="M46.6641 268.534H76.4911" stroke="#57595E" stroke-width="1.0212" stroke-miterlimit="10"/>
<path d="M207.287 264.332H194.219V272.736H207.287C208.458 272.736 209.408 271.787 209.408 270.615V266.452C209.408 265.281 208.458 264.332 207.287 264.332Z" fill="#27DEBF"/>
<path d="M200.108 269.93C201.33 269.93 202.321 268.94 202.321 267.717C202.321 266.495 201.33 265.504 200.108 265.504C198.885 265.504 197.895 266.495 197.895 267.717C197.895 268.94 198.885 269.93 200.108 269.93Z" stroke="white" stroke-width="0.6808" stroke-miterlimit="10"/>
<path d="M201.816 269.124L204.173 271.481" stroke="white" stroke-width="0.6808" stroke-miterlimit="10"/>
<path d="M219.941 262.715H224.9L227.281 269.727H237.441L238.537 264.193" stroke="white" stroke-width="1.5212" stroke-miterlimit="10" stroke-linecap="round"/>
<path d="M232.15 266.707C233.323 266.707 234.273 265.638 234.273 264.319C234.273 263 233.323 261.931 232.15 261.931C230.978 261.931 230.027 263 230.027 264.319C230.027 265.638 230.978 266.707 232.15 266.707Z" fill="#27DEBF"/>
<path d="M228.448 275.489C229.459 275.489 230.279 274.669 230.279 273.658C230.279 272.647 229.459 271.827 228.448 271.827C227.437 271.827 226.617 272.647 226.617 273.658C226.617 274.669 227.437 275.489 228.448 275.489Z" fill="white"/>
<path d="M235.272 275.489C236.284 275.489 237.103 274.669 237.103 273.658C237.103 272.647 236.284 271.827 235.272 271.827C234.261 271.827 233.441 272.647 233.441 273.658C233.441 274.669 234.261 275.489 235.272 275.489Z" fill="white"/>
<path d="M217.392 379.518H147.58C146.172 379.518 145.031 378.376 145.031 376.968V370.736C145.031 369.328 146.173 368.186 147.58 368.186H217.392C218.8 368.186 219.942 369.328 219.942 370.736V376.968C219.942 378.377 218.8 379.518 217.392 379.518Z" fill="#374C7F"/>
<path d="M217.392 378.167H147.58C146.172 378.167 145.031 377.026 145.031 375.618V369.386C145.031 367.978 146.173 366.837 147.58 366.837H217.392C218.8 366.837 219.942 367.979 219.942 369.386V375.618C219.942 377.025 218.8 378.167 217.392 378.167Z" fill="#AFB6E5"/>
<path d="M184.068 326.8L185.52 329.741L188.766 330.213L186.417 332.502L186.972 335.735L184.068 334.209L181.165 335.735L181.72 332.502L179.371 330.213L182.617 329.741L184.068 326.8Z" fill="#39C2FF"/>
<path d="M194.366 326.8L195.817 329.741L199.063 330.213L196.714 332.502L197.269 335.735L194.366 334.209L191.462 335.735L192.017 332.502L189.668 330.213L192.914 329.741L194.366 326.8Z" fill="#39C2FF"/>
<path d="M204.667 326.8L206.118 329.741L209.364 330.213L207.016 332.502L207.57 335.735L204.667 334.209L201.763 335.735L202.318 332.502L199.969 330.213L203.215 329.741L204.667 326.8Z" fill="#39C2FF"/>
<path d="M214.964 326.8L216.416 329.741L219.662 330.213L217.313 332.502L217.867 335.735L214.964 334.209L212.061 335.735L212.615 332.502L210.266 330.213L213.512 329.741L214.964 326.8Z" fill="#39C2FF"/>
<path d="M225.26 326.8L226.712 329.741L229.958 330.213L227.609 332.502L228.164 335.735L225.26 334.209L222.358 335.735L222.911 332.502L220.562 330.213L223.809 329.741L225.26 326.8Z" fill="#39C2FF"/>
<path d="M227.746 360.266H141.057C139.308 360.266 137.891 358.849 137.891 357.1V349.362C137.891 347.613 139.308 346.196 141.057 346.196H227.746C229.495 346.196 230.912 347.613 230.912 349.362V357.1C230.912 358.849 229.495 360.266 227.746 360.266Z" fill="#39C2FF"/>
<path d="M205.496 348.85H203.836V357.612H205.496V348.85Z" fill="#374C7F"/>
<path d="M209.047 352.401H200.285V354.061H209.047V352.401Z" fill="#374C7F"/>
<path d="M202.15 349.545L200.977 350.719L207.172 356.915L208.346 355.741L202.15 349.545Z" fill="#374C7F"/>
<path d="M207.168 349.565L200.973 355.761L202.146 356.935L208.342 350.739L207.168 349.565Z" fill="#374C7F"/>
<path d="M191.492 348.85H189.832V357.612H191.492V348.85Z" fill="#374C7F"/>
<path d="M195.043 352.401H186.281V354.061H195.043V352.401Z" fill="#374C7F"/>
<path d="M188.146 349.546L186.973 350.72L193.168 356.915L194.342 355.742L188.146 349.546Z" fill="#374C7F"/>
<path d="M193.164 349.565L186.969 355.761L188.143 356.935L194.338 350.739L193.164 349.565Z" fill="#374C7F"/>
<path d="M177.488 348.85H175.828V357.612H177.488V348.85Z" fill="#374C7F"/>
<path d="M181.039 352.401H172.277V354.061H181.039V352.401Z" fill="#374C7F"/>
<path d="M174.143 349.545L172.969 350.719L179.164 356.915L180.338 355.741L174.143 349.545Z" fill="#374C7F"/>
<path d="M179.16 349.564L172.965 355.76L174.139 356.934L180.334 350.738L179.16 349.564Z" fill="#374C7F"/>
<path d="M163.484 348.85H161.824V357.612H163.484V348.85Z" fill="#374C7F"/>
<path d="M167.035 352.401H158.273V354.061H167.035V352.401Z" fill="#374C7F"/>
<path d="M160.139 349.545L158.965 350.719L165.16 356.915L166.334 355.741L160.139 349.545Z" fill="#374C7F"/>
<path d="M165.157 349.564L158.961 355.76L160.135 356.934L166.33 350.738L165.157 349.564Z" fill="#374C7F"/>
<path d="M36.2403 250.733C37.922 250.733 39.2853 249.37 39.2853 247.688C39.2853 246.006 37.922 244.643 36.2403 244.643C34.5586 244.643 33.1953 246.006 33.1953 247.688C33.1953 249.37 34.5586 250.733 36.2403 250.733Z" fill="#374C7F"/>
<path d="M48.4747 250.733C50.1564 250.733 51.5197 249.37 51.5197 247.688C51.5197 246.006 50.1564 244.643 48.4747 244.643C46.793 244.643 45.4297 246.006 45.4297 247.688C45.4297 249.37 46.793 250.733 48.4747 250.733Z" fill="#FF4747"/>
<path d="M60.7091 250.733C62.3908 250.733 63.7541 249.37 63.7541 247.688C63.7541 246.006 62.3908 244.643 60.7091 244.643C59.0274 244.643 57.6641 246.006 57.6641 247.688C57.6641 249.37 59.0274 250.733 60.7091 250.733Z" fill="white"/>
<path d="M137.891 292.206H230.912" stroke="#45619B" stroke-width="2.0751" stroke-miterlimit="10" stroke-linecap="round"/>
<path d="M137.891 305.677H230.912" stroke="#45619B" stroke-width="2.0751" stroke-miterlimit="10" stroke-linecap="round"/>
<path d="M137.891 319.149H230.912" stroke="#45619B" stroke-width="2.0751" stroke-miterlimit="10" stroke-linecap="round"/>
<path d="M137.891 332.621H172.975" stroke="#45619B" stroke-width="2.0751" stroke-miterlimit="10" stroke-linecap="round"/>
<path d="M74.1138 306.393L71.4258 293.452L83.9698 287.08L92.0338 290.963L95.0198 299.723V306.393L85.8618 328.593H80.1878L74.1138 306.393Z" fill="#637ABE"/>
<path d="M67.7773 299.046C67.7773 299.046 49.5803 304.125 46.2963 310.395L36.7383 332.495L54.9563 338.468L57.9433 332.794L57.6453 374.903H109.009V330.703L112.297 336.575L129.915 331.897L120.357 308.901C120.357 308.901 113.245 299.941 98.3573 299.044L89.4583 306.207L83.3263 324.708L78.4073 306.207L77.2283 306.39L67.7773 299.046Z" fill="#5277F7"/>
<path d="M78.4073 306.209L74.6133 308.206L83.3663 325.207L92.4123 308.335L89.4583 306.209L83.2253 323.813L78.4073 306.209Z" fill="white"/>
<path d="M103.35 322.62H90.5078V324.611H103.35V322.62Z" fill="white"/>
<g opacity="0.35">
<path d="M120.356 308.903C120.356 308.903 113.244 299.943 98.3563 299.046L94.2383 302.36C94.5273 302.381 94.7903 302.414 95.0213 302.46C98.0363 303.067 114.191 312.623 114.191 312.623L124.337 333.379L129.914 331.898L120.356 308.903Z" fill="#653239"/>
<path d="M67.7773 299.046C67.7773 299.046 49.5803 304.125 46.2963 310.395L36.7383 332.495L44.6183 335.078C46.2583 331.047 48.9713 324.38 53.4633 313.342C56.0783 311.792 68.2693 308.047 76.2983 305.668L67.7773 299.046Z" fill="#653239"/>
</g>
<path d="M95.766 292.654C102.635 305.197 96.026 310.936 96.026 310.936L89.455 306.209C90.639 305.187 91.603 303.34 92.004 301.854C93.514 296.258 90.548 290.295 84.607 289.291C81.941 288.839 78.401 289.996 76.323 291.734C73.305 294.261 72.976 299.09 74.847 302.437C75.086 302.864 77.686 306.588 78.404 306.21C78.389 306.218 69.417 310.937 69.417 310.937C64.937 300.186 71.425 292.356 71.425 292.356C71.425 292.356 75.175 286.68 83.222 286.682C83.223 286.68 91.434 286.432 95.766 292.654Z" fill="white"/>
<path d="M593.722 417.114C593.722 418.605 515.435 419.813 418.863 419.813C322.291 419.813 244.004 418.605 244.004 417.114C244.004 415.623 322.291 414.415 418.863 414.415C515.434 414.414 593.722 415.623 593.722 417.114Z" fill="#131A2B"/>
<path d="M530.645 333.218C530.645 333.218 565.825 247.507 599.146 270.889C611.037 280.255 534.239 338.418 534.239 338.418L530.645 333.218Z" fill="#A4BDDA"/>
<path d="M586.899 274.615C586.899 274.615 545.95 309.651 535.242 326.092" stroke="white" stroke-width="0.747" stroke-miterlimit="10"/>
<path d="M557.773 301.143C557.773 301.143 560.67 296.016 560.289 286.025" stroke="white" stroke-width="0.747" stroke-miterlimit="10"/>
<path d="M544.376 330.518L573.473 271.335C549.934 286.237 530.645 333.218 530.645 333.218L533.809 337.797L537.141 336.191C538.907 334.824 541.394 332.885 544.376 330.518Z" fill="#7590AA"/>
<path d="M522.875 338.601C522.875 338.601 523.216 202.054 579.716 213.725C600.427 219.268 530.406 343.472 530.406 343.472L522.875 338.601Z" fill="#B4D1ED"/>
<path d="M567.282 222.547C567.282 222.547 533.532 291.22 528.023 333.727" stroke="white" stroke-width="0.747" stroke-miterlimit="10"/>
<path d="M577.282 234.449C577.282 234.449 562.958 239.924 557.305 244.25" stroke="white" stroke-width="0.747" stroke-miterlimit="10"/>
<path d="M540.5 248.274C540.5 248.274 545.237 261.633 546.05 271.446" stroke="white" stroke-width="0.747" stroke-miterlimit="10"/>
<path d="M552.647 287.863C552.647 287.863 543.462 289.733 537.773 294.429" stroke="white" stroke-width="0.747" stroke-miterlimit="10"/>
<path d="M570.332 289.339C570.332 289.339 579.546 286.047 589.852 286.942" stroke="white" stroke-width="0.747" stroke-miterlimit="10"/>
<path d="M528.01 332.073C528.01 332.073 493.178 283.748 475.844 303.358C469.812 310.995 526.542 335.863 526.542 335.863L528.01 332.073Z" fill="#A4BDDA"/>
<path d="M484.059 303.854C484.059 303.854 514.91 319.629 524.068 328.306" stroke="white" stroke-width="0.4803" stroke-miterlimit="10"/>
<path d="M506.243 316.08C506.243 316.08 503.664 313.308 502.406 307.003" stroke="white" stroke-width="0.4803" stroke-miterlimit="10"/>
<path d="M519.021 332.441L491.965 299.792C508.915 305.585 528.011 332.073 528.011 332.073L526.719 335.41L524.395 334.905C523.086 334.315 521.24 333.475 519.021 332.441Z" fill="#7590AA"/>
<path d="M533.675 334.276C533.675 334.276 513.014 248.948 479.433 264.706C467.313 271.274 529.694 338.45 529.694 338.45L533.675 334.276Z" fill="#B4D1ED"/>
<path d="M488.527 268.36C488.527 268.36 519.914 306.246 529.724 332" stroke="white" stroke-width="0.4803" stroke-miterlimit="10"/>
<path d="M484.059 277.299C484.059 277.299 493.835 278.577 498.018 280.436" stroke="white" stroke-width="0.4803" stroke-miterlimit="10"/>
<path d="M509.126 280.437C509.126 280.437 508.165 289.5 509.126 295.757" stroke="white" stroke-width="0.4803" stroke-miterlimit="10"/>
<path d="M507.457 307.01C507.457 307.01 513.48 306.804 517.74 308.889" stroke="white" stroke-width="0.4803" stroke-miterlimit="10"/>
<path d="M496.623 310.581C496.623 310.581 490.369 309.902 484.059 312.005" stroke="white" stroke-width="0.4803" stroke-miterlimit="10"/>
<path d="M552.055 331.424H504.324V415.904H552.055V331.424Z" fill="#3B8BFF"/>
<path d="M552.055 345.473H504.324V371.354H552.055V345.473Z" fill="#5277F7"/>
<path d="M460.947 349.306C460.947 349.306 433.435 282.277 407.377 300.563C398.078 307.888 458.137 353.373 458.137 353.373L460.947 349.306Z" fill="#A4BDDA"/>
<path d="M416.953 303.477C416.953 303.477 448.976 330.876 457.351 343.734" stroke="white" stroke-width="0.5842" stroke-miterlimit="10"/>
<path d="M439.733 324.223C439.733 324.223 437.467 320.214 437.765 312.4" stroke="white" stroke-width="0.5842" stroke-miterlimit="10"/>
<path d="M450.208 347.195L427.453 300.912C445.861 312.566 460.946 349.307 460.946 349.307L458.472 352.888L455.866 351.632C454.485 350.563 452.54 349.046 450.208 347.195Z" fill="#7590AA"/>
<path d="M467.022 353.517C467.022 353.517 466.755 246.733 422.57 255.86C406.373 260.195 461.132 357.327 461.132 357.327L467.022 353.517Z" fill="#B4D1ED"/>
<path d="M432.293 262.758C432.293 262.758 458.686 316.463 462.995 349.705" stroke="white" stroke-width="0.5842" stroke-miterlimit="10"/>
<path d="M424.477 272.066C424.477 272.066 435.679 276.347 440.1 279.731" stroke="white" stroke-width="0.5842" stroke-miterlimit="10"/>
<path d="M453.238 282.878C453.238 282.878 449.534 293.325 448.898 300.999" stroke="white" stroke-width="0.5842" stroke-miterlimit="10"/>
<path d="M443.738 313.838C443.738 313.838 450.921 315.301 455.37 318.973" stroke="white" stroke-width="0.5842" stroke-miterlimit="10"/>
<path d="M429.91 314.992C429.91 314.992 422.704 312.417 414.645 313.118" stroke="white" stroke-width="0.5842" stroke-miterlimit="10"/>
<path d="M463.008 348.412C463.008 348.412 490.248 310.62 503.803 325.956C508.521 331.929 464.156 351.376 464.156 351.376L463.008 348.412Z" fill="#A4BDDA"/>
<path d="M497.378 326.343C497.378 326.343 473.252 338.68 466.09 345.465" stroke="white" stroke-width="0.3756" stroke-miterlimit="10"/>
<path d="M480.027 335.904C480.027 335.904 482.044 333.736 483.028 328.806" stroke="white" stroke-width="0.3756" stroke-miterlimit="10"/>
<path d="M470.038 348.699L491.197 323.166C477.942 327.696 463.008 348.411 463.008 348.411L464.019 351.02L465.837 350.625C466.86 350.165 468.303 349.508 470.038 348.699Z" fill="#7590AA"/>
<path d="M458.578 350.134C458.578 350.134 474.736 283.404 500.997 295.728C510.475 300.864 461.691 353.398 461.691 353.398L458.578 350.134Z" fill="#B4D1ED"/>
<path d="M493.885 298.585C493.885 298.585 469.34 328.213 461.668 348.353" stroke="white" stroke-width="0.3756" stroke-miterlimit="10"/>
<path d="M497.377 305.576C497.377 305.576 489.732 306.576 486.461 308.029" stroke="white" stroke-width="0.3756" stroke-miterlimit="10"/>
<path d="M477.773 308.029C477.773 308.029 478.525 315.116 477.773 320.01" stroke="white" stroke-width="0.3756" stroke-miterlimit="10"/>
<path d="M479.081 328.81C479.081 328.81 474.371 328.649 471.039 330.279" stroke="white" stroke-width="0.3756" stroke-miterlimit="10"/>
<path d="M487.555 331.603C487.555 331.603 492.446 331.072 497.381 332.717" stroke="white" stroke-width="0.3756" stroke-miterlimit="10"/>
<path d="M481.526 347.903H444.199V413.969H481.526V347.903Z" fill="#C92D3C"/>
<path d="M481.526 358.891H444.199V379.131H481.526V358.891Z" fill="#FF4747"/>
<path d="M478.052 196.183H477.698C468.016 196.183 460.168 204.032 460.168 213.713V233.151H495.583V213.713C495.582 204.031 487.734 196.183 478.052 196.183Z" stroke="#819EC7" stroke-width="2.4146" stroke-miterlimit="10"/>
<path d="M483.982 196.183H483.628C473.946 196.183 466.098 204.032 466.098 213.713V233.151H501.513V213.713C501.512 204.031 493.663 196.183 483.982 196.183Z" stroke="#819EC7" stroke-width="2.4146" stroke-miterlimit="10"/>
<path d="M534.219 337.783H418.316V416.661H534.219V337.783Z" fill="#374C7F"/>
<path d="M462.584 337.783H418.316V416.661H462.584V337.783Z" fill="#28355F"/>
<path d="M523.754 301.563H440.449V337.783H523.754V301.563Z" fill="#39C2FF"/>
<path d="M523.756 301.563H498V337.783H523.756V301.563Z" fill="#39C2FF"/>
<path d="M510.474 228.319H451.722L448.098 301.563H514.098L510.474 228.319Z" fill="#27DEBF"/>
<path opacity="0.53" d="M440.449 337.783L497.998 323.204L523.754 337.783H440.449Z" fill="#440000"/>
<path d="M448.098 301.563C448.098 301.563 486.226 286.977 490.629 228.319C510.474 228.319 510.474 228.319 510.474 228.319L514.098 301.563H448.098Z" fill="#1DAF97"/>
<path d="M317.449 221.785H301.184V251.127H317.449V221.785Z" fill="#E37427"/>
<path d="M344.298 335.616L335.145 416.66H298.523C298.523 416.66 297.815 407.737 306.071 405.623C315.972 333.64 316.185 331.749 316.185 331.749L344.298 335.616Z" fill="#FF8076"/>
<path d="M323.663 392.287C323.663 392.287 323.107 398.495 330.136 398.955" stroke="#A50000" stroke-width="0.9198" stroke-miterlimit="10"/>
<path opacity="0.42" d="M325.396 333.017L316.181 331.75C316.181 331.75 315.968 333.641 306.067 405.624C297.811 407.738 298.519 416.661 298.519 416.661H313.78L325.396 333.017Z" fill="white"/>
<path d="M383.577 333.357L385.595 416.661H348.833C348.833 416.661 347.308 408.843 355.199 405.624C355.199 332.963 355.199 333.357 355.199 333.357H383.577Z" fill="#FF8076"/>
<path d="M383.578 333.356H355.199C355.199 333.359 355.199 333.517 355.199 340.322C362.895 348.428 375.974 349.72 383.972 349.661L383.578 333.356Z" fill="#440000"/>
<path opacity="0.42" d="M368.968 333.356H355.199C355.199 333.361 355.199 334.098 355.199 405.623C347.308 408.842 348.833 416.66 348.833 416.66H367.063L368.968 333.356Z" fill="white"/>
<path d="M315.188 339.139C319.369 342.638 328.838 349.208 342.565 350.956L344.298 335.616L316.185 331.749C316.185 331.749 316.141 332.137 315.188 339.139Z" fill="#440000"/>
<path d="M314.765 397.504H314.38C309.998 397.504 306.445 401.057 306.445 405.439V405.623H322.7V405.439C322.7 401.057 319.147 397.504 314.765 397.504Z" fill="#28355F"/>
<path d="M298.523 416.661H335.145L336.392 405.624H306.071C297.815 407.738 298.523 416.661 298.523 416.661Z" fill="#394C77"/>
<path d="M354.475 236.118L347.06 341.634C347.06 341.634 333.231 346.695 312.758 336.916L331.587 233.399L354.475 236.118Z" fill="#374C7F"/>
<path d="M338.23 342.93C343.846 342.806 347.062 341.635 347.062 341.635L359.871 234.711H348.701L338.23 342.93Z" fill="#28355F"/>
<path d="M321.402 407.32C321.402 408.257 320.642 409.016 319.706 409.016H306.844C305.907 409.016 305.148 408.257 305.148 407.32C305.148 406.383 305.907 405.624 306.844 405.624H319.706C320.643 405.624 321.402 406.383 321.402 407.32Z" fill="white"/>
<path d="M348.833 416.661H385.595L385.328 405.624H355.199C347.308 408.843 348.833 416.661 348.833 416.661Z" fill="#394C77"/>
<path d="M371.457 407.32C371.457 408.257 370.698 409.016 369.761 409.016H356.899C355.962 409.016 355.203 408.257 355.203 407.32C355.203 406.383 355.963 405.624 356.899 405.624H369.761C370.697 405.624 371.457 406.383 371.457 407.32Z" fill="white"/>
<path d="M363.519 397.504H363.134C358.752 397.504 355.199 401.057 355.199 405.439V405.623H371.454V405.439C371.454 401.057 367.901 397.504 363.519 397.504Z" fill="#28355F"/>
<path d="M374.194 392.287C374.194 392.287 373.638 398.495 380.667 398.955" stroke="#A50000" stroke-width="0.9198" stroke-miterlimit="10"/>
<path d="M380.107 233.399L387.139 338.941C387.139 338.941 374.129 345.839 352.514 338.941C352.514 263.981 352.514 263.981 352.514 263.981C352.514 263.981 344.257 250.078 345.626 237.674C346.535 229.95 346.535 229.95 346.535 229.95L380.107 233.399Z" fill="#374C7F"/>
<path d="M378.566 341.428C384.112 340.54 387.14 338.941 387.14 338.941L380.108 233.399L374.195 232.792L378.566 341.428Z" fill="#28355F"/>
<path d="M374.192 232.792L361.992 231.539C362.326 238.449 364.311 253.813 375.226 258.493C374.192 232.792 374.192 232.792 374.192 232.792Z" fill="#28355F"/>
<path d="M380.881 245.015L380.107 233.399L346.536 229.95C346.536 229.95 346.536 229.952 345.929 235.102L331.59 233.399C331.59 233.399 347.777 248.124 380.881 245.015Z" fill="#072847"/>
<path d="M342.396 138.204C342.396 138.204 334.578 139.814 329.059 159.128C323.541 178.443 316.919 202.357 316.919 202.357C316.919 202.357 271.574 199.751 267.895 218.3C337.643 218.3 337.643 218.3 337.643 218.3L342.396 138.204Z" fill="#D1544E"/>
<path d="M323.598 178.438C328.038 180.044 334.08 181.803 339.796 182.081L342.399 138.204C342.399 138.204 334.581 139.814 329.062 159.128C327.269 165.407 325.359 172.167 323.598 178.438Z" fill="#1E3A8A"/>
<path d="M334.333 171.248L326.625 212.015H332.105L334.333 171.248Z" fill="#06127D"/>
<path d="M372.203 132.111L392.294 150.851L380.107 233.399C380.107 233.399 350.905 243.976 331.59 233.399C332.97 179.593 332.192 168.735 342.397 138.204C361.62 131.653 362.892 132.111 362.892 132.111H372.203Z" fill="#1E3A8A"/>
<path d="M371.255 112.559L372.204 132.111L359.369 150.851L357.301 135.56L358.569 123.948L367.385 112.221L371.255 112.559Z" fill="#FF8076"/>
<path d="M368.484 115.613L365.364 114.909L358.569 123.948L357.301 135.56C366.801 129.237 368.484 115.613 368.484 115.613Z" fill="#440000"/>
<path d="M352.13 104.863C352.13 104.863 342.854 104.863 341.36 97.735C340.785 95.206 345.125 92.101 348.819 95.436C346.879 88.538 348.965 86.813 353.728 86.813C358.491 86.813 362.745 94.516 362.86 94.861C363.435 89.457 368.149 89.113 369.068 96.471C373.207 98.655 376.098 99.262 375.804 105.439C375.509 111.616 373.552 120.54 371.483 122.532L371.462 122.52C370.169 121.753 369.3 120.434 369.105 118.943L368.598 115.05L366.797 111.041L360.775 103.255L352.13 104.863Z" fill="black"/>
<path opacity="0.42" d="M364.715 100.794C364.715 100.794 353.415 93.272 352.128 86.896C348.523 87.306 347.113 89.369 348.819 95.436C345.126 92.102 340.785 95.206 341.36 97.735C342.855 104.863 352.13 104.863 352.13 104.863L357.911 103.787L364.715 100.794Z" fill="white"/>
<path d="M350.474 103.491C349.914 108.097 348.88 117.583 348.821 125.207C348.786 129.652 353.51 132.598 357.455 130.548C363.042 127.645 367.811 122.759 369.069 112.067L367.383 112.22L367.844 101.49C367.844 101.49 359.863 99.3621 354.008 99.9811C352.156 100.178 350.699 101.643 350.474 103.491Z" fill="#FF8076"/>
<path d="M367.382 112.221L367.546 108.396C367.546 108.396 366.923 115.594 363.704 118.2C360.485 120.806 355.09 119.45 352.054 119.426C350.95 119.418 349.901 119.465 349.011 119.528C348.906 121.465 348.835 123.389 348.821 125.206C348.786 129.652 353.511 132.599 357.456 130.548C363.042 127.645 367.811 122.759 369.069 112.068L367.382 112.221Z" fill="black"/>
<path d="M360.777 112.639C360.777 112.958 360.462 113.217 360.072 113.217C359.683 113.217 359.367 112.958 359.367 112.639V110.789C359.367 110.47 359.683 110.211 360.072 110.211C360.461 110.211 360.777 110.47 360.777 110.789V112.639Z" fill="#7A0000"/>
<path d="M352.133 113.775C352.133 114.089 351.818 114.344 351.428 114.344C351.039 114.344 350.723 114.089 350.723 113.775V111.954C350.723 111.64 351.038 111.385 351.428 111.385C351.817 111.385 352.133 111.64 352.133 111.954V113.775Z" fill="#7A0000"/>
<path d="M354.294 112.559L353.73 118.667H356.643" stroke="#BA4A4A" stroke-width="0.4599" stroke-miterlimit="10"/>
<path d="M352.133 121.204H358.335C358.335 121.204 355.179 124.189 352.133 121.204Z" fill="white"/>
<path d="M374.129 168.326L369.07 206.464L388.213 212.015L374.129 168.326Z" fill="#06127D"/>
<path d="M369.072 112.068L369.877 107.485C369.877 107.485 376.545 105.208 375.74 110.841C375.05 114.75 368.602 115.049 368.602 115.049L369.072 112.068Z" fill="#FF8076"/>
<path d="M366.797 140L370.244 153.342L375.898 135.56L372.201 132.111L366.797 140Z" fill="#06127D"/>
<path d="M358.27 142.726L352.133 148.727L354.685 134.187L357.544 133.336L357.301 135.56L358.27 142.726Z" fill="#06127D"/>
<path opacity="0.42" d="M364.716 100.794C361.856 100.237 357.548 99.608 354.008 99.982C352.156 100.178 350.699 101.643 350.474 103.492C349.914 108.098 348.88 117.584 348.821 125.208C348.792 128.924 352.088 131.58 355.474 131.158C356.318 129.961 357.553 128.113 359.366 125.235C363.661 118.417 364.552 104.488 364.716 100.794Z" fill="white"/>
<path d="M357.301 107.673C357.301 107.673 359.838 105.324 362.375 107.015" stroke="black" stroke-width="1.8395" stroke-miterlimit="10" stroke-linecap="round"/>
<path d="M352.602 107.673C352.602 107.673 350.441 106.827 349.219 107.673" stroke="black" stroke-width="1.8395" stroke-miterlimit="10" stroke-linecap="round"/>
<path d="M368.914 113.217L374.127 110.21" stroke="#A50000" stroke-width="0.9198" stroke-miterlimit="10"/>
<path d="M374.129 245.015L378.566 341.428" stroke="#80C8D4" stroke-width="0.9198" stroke-miterlimit="10"/>
<path d="M347.113 251.127L338.23 342.93" stroke="#80C8D4" stroke-width="0.9198" stroke-miterlimit="10"/>
<path d="M313.397 251.127H306.059V416.66H313.397V251.127Z" fill="#27DEBF"/>
<path d="M317.449 225.271H301.184V229.95H317.449V225.271Z" fill="#E37427"/>
<path d="M338.23 413.036H279.914V416.661H338.23V413.036Z" fill="#E37427"/>
<path d="M368.601 218.3H250.422V225.271H368.601V218.3Z" fill="#27DEBF"/>
<path d="M333.619 212.015H285.832V218.3H333.619V212.015Z" fill="white"/>
<path d="M285.831 212.015H251.941V218.3H285.831V212.015Z" fill="#28355F"/>
<path d="M254.031 167.484H220.141L254.031 212.015H287.922L254.031 167.484Z" fill="#374C7F"/>
<path d="M251.941 167.484H218.051L251.941 212.015H285.832L251.941 167.484Z" fill="white"/>
<path d="M339.637 218.3L354.476 225.271H366.305L348.329 218.3H339.637Z" fill="#E37427"/>
<path d="M252.825 188.72C256.076 190.106 258.049 192.787 257.23 194.707C256.411 196.627 253.112 197.06 249.86 195.674C246.608 194.288 244.636 191.607 245.455 189.687C246.274 187.767 249.573 187.334 252.825 188.72Z" fill="#DEF6F8"/>
<path d="M301.184 213.538H290.238V216.548H301.184V213.538Z" fill="#374C7F"/>
<path d="M315.2 213.538H304.254V216.548H315.2V213.538Z" fill="#374C7F"/>
<path d="M392.295 150.851C392.295 150.851 396.204 157.289 396.817 173.538C397.176 183.062 397.114 203.6 397.002 218.97C396.934 228.265 387.633 234.646 378.933 231.374L333.621 212.015H316.922C316.922 212.015 313.426 207.876 324.77 205.117C329.722 203.912 334.675 203.117 338.683 202.603C343.988 201.923 349.363 202.161 354.588 203.302L374.13 207.57V168.327C374.13 168.327 374.283 153.917 392.295 150.851Z" fill="#FF8076"/>
<path d="M396.816 173.538C396.203 157.289 392.294 150.851 392.294 150.851C374.282 153.917 374.129 168.326 374.129 168.326V191.645C379.52 191.605 388.446 191.122 397.067 188.806C397.032 182.678 396.956 177.264 396.816 173.538Z" fill="#1E3A8A"/>
<path d="M374.129 207.569L383.579 209.878" stroke="#A50000" stroke-width="0.9198" stroke-miterlimit="10" stroke-linecap="round"/>
<path opacity="0.49" d="M378.93 231.374C387.463 234.583 396.567 228.505 396.979 219.501C395.239 218.733 393.32 218.3 391.296 218.3C384.064 218.3 378.112 223.746 377.297 230.76L378.93 231.374Z" fill="#B0322F"/>
<path d="M317.449 208.363C317.449 208.363 328.291 205.346 333.619 205.806" stroke="#A50000" stroke-width="0.9198" stroke-miterlimit="10" stroke-linecap="round"/>
</svg>
