<svg width="267" height="282" viewBox="0 0 267 282" fill="none" xmlns="http://www.w3.org/2000/svg">
<path d="M244.202 0H145C132.408 0 122.202 10.208 122.202 22.798V156.926C122.202 161.779 126.136 165.715 130.99 165.715C135.843 165.715 139.779 161.781 139.779 156.926V29.3015C139.779 26.4155 142.141 24.0535 145.027 24.0535H244.179C247.064 24.0535 249.427 26.4155 249.427 29.3015V203.175C249.427 211.717 242.501 218.641 233.961 218.641H76.5825C61.1717 218.641 48.5616 206.031 48.5616 190.62V82.8556C48.5616 77.7868 44.4151 73.6403 39.3463 73.6403H26.6156C22.4223 73.6403 18.6056 70.8063 17.7653 66.6966C16.6102 61.0486 20.9157 56.0635 26.3645 56.0635H39.3446C54.079 56.0635 66.1351 68.1195 66.1351 82.854V184.542C66.1351 193.667 73.5324 201.062 82.6557 201.062H220.123C224.976 201.062 228.912 197.129 228.912 192.274C228.912 187.421 224.978 183.486 220.123 183.486H83.7103V82.8523C83.7103 58.3501 63.8467 38.4866 39.3446 38.4866H27.1345C13.4145 38.4866 1.4037 48.6511 0.119752 62.3108C-1.35503 77.986 10.9873 91.2138 26.3628 91.2138H30.9831V190.617C30.9831 215.799 51.3973 236.213 76.5791 236.213H233.932C252.195 236.213 267 221.408 267 203.145V22.798C267 10.2063 256.792 0 244.202 0ZM172.94 16.1188C170.86 16.1188 169.174 14.4331 169.174 12.3524C169.174 10.2716 170.86 8.58588 172.94 8.58588C175.021 8.58588 176.707 10.2716 176.707 12.3524C176.707 14.4331 175.021 16.1188 172.94 16.1188ZM218.868 16.1188H183.716V8.58588H218.868V16.1188Z" fill="#F0F1F3"/>
<path d="M85.8032 270.979C91.3593 265.423 91.3592 256.415 85.8032 250.859C80.2472 245.303 71.2391 245.303 65.6831 250.859C60.1271 256.415 60.1271 265.423 65.6831 270.979C71.2391 276.535 80.2472 276.535 85.8032 270.979Z" fill="#F0F1F3"/>
<path d="M239.797 269.08C244.282 262.628 242.688 253.762 236.236 249.277C229.784 244.792 220.918 246.387 216.433 252.838C211.948 259.29 213.543 268.156 219.994 272.641C226.446 277.126 235.312 275.532 239.797 269.08Z" fill="#F0F1F3"/>
</svg>
